Coordinates
version=1
nRows=35
nColumns=18
inDegrees=yes

Units are S.I. units (second, meters, Newtons, ...)
Angles are in degrees.

endheader
time	pelvis_tilt	pelvis_list	pelvis_rot	pelvis_tx	pelvis_ty	pelvis_tz	hip_flexion_r	hip_adduction_r	hip_rotation_r	knee_angle_r	ankle_angle_r	hip_flexion_l	hip_adduction_l	hip_rotation_l	knee_angle_l	ankle_angle_l	lumbar_extension
      3.53000000	     -0.79305641	      0.00000000	      0.00000000	     -0.40037619	      0.92477001	     -0.22721509	     24.22079828	      0.00000000	      0.00000000	    -60.88081168	     -4.64363981	      5.68110786	      0.00000000	      0.00000000	    -19.17329200	      8.11870828	     -3.92037598
      3.54000000	     -0.72302505	      0.00000000	      0.00000000	     -0.38895309	      0.92488014	     -0.22732385	     25.12400190	      0.00000000	      0.00000000	    -59.13397213	     -3.99762849	      4.41721874	      0.00000000	      0.00000000	    -18.43775738	      8.41437667	     -4.06175988
      3.55000000	     -0.65342791	      0.00000000	      0.00000000	     -0.37748680	      0.92477265	     -0.22740828	     25.92752729	      0.00000000	      0.00000000	    -57.13477406	     -3.44311549	      3.14867948	      0.00000000	      0.00000000	    -17.70329388	      8.71925583	     -4.20210142
      3.56000000	     -0.57868726	      0.00000000	      0.00000000	     -0.36596858	      0.92448698	     -0.22747272	     26.62186184	      0.00000000	      0.00000000	    -54.89087201	     -2.98111010	      1.87933007	      0.00000000	      0.00000000	    -16.98260951	      9.03297003	     -4.34628134
      3.57000000	     -0.49525696	      0.00000000	      0.00000000	     -0.35439830	      0.92405331	     -0.22752431	     27.19920533	      0.00000000	      0.00000000	    -52.41053190	     -2.60883294	      0.61297667	      0.00000000	      0.00000000	    -16.28694116	      9.35252714	     -4.49779784
      3.58000000	     -0.40241305	      0.00000000	      0.00000000	     -0.34277907	      0.92346947	     -0.22756383	     27.65549230	      0.00000000	      0.00000000	    -49.70261390	     -2.32105171	     -0.64756816	      0.00000000	      0.00000000	    -15.62405077	      9.67283924	     -4.65761206
      3.59000000	     -0.30212418	      0.00000000	      0.00000000	     -0.33110784	      0.92270860	     -0.22758278	     27.99210710	      0.00000000	      0.00000000	    -46.77761018	     -2.11141702	     -1.90059207	      0.00000000	      0.00000000	    -14.99709416	      9.98755621	     -4.82338465
      3.60000000	     -0.19863779	      0.00000000	      0.00000000	     -0.31937605	      0.92175256	     -0.22756949	     28.21635555	      0.00000000	      0.00000000	    -43.64998316	     -1.97333882	     -3.14464683	      0.00000000	      0.00000000	    -14.40475068	     10.28995420	     -4.98928451
      3.61000000	     -0.09810237	      0.00000000	      0.00000000	     -0.30757347	      0.92061278	     -0.22751074	     28.34028824	      0.00000000	      0.00000000	    -40.34128313	     -1.90017410	     -4.37702215	      0.00000000	      0.00000000	    -13.84273363	     10.57360843	     -5.14645707
      3.62000000	     -0.00824636	      0.00000000	      0.00000000	     -0.29569239	      0.91931625	     -0.22739265	     28.37853069	      0.00000000	      0.00000000	    -36.88306225	     -1.88475155	     -5.59231879	      0.00000000	      0.00000000	    -13.30653818	     10.83266716	     -5.28416392
      3.63000000	      0.06252301	      0.00000000	      0.00000000	     -0.28372949	      0.91787927	     -0.22721311	     28.34682897	      0.00000000	      0.00000000	    -33.31865481	     -1.91844344	     -6.78207476	      0.00000000	      0.00000000	    -12.79495359	     11.06170423	     -5.39153432
      3.64000000	      0.10705408	      0.00000000	      0.00000000	     -0.27168162	      0.91630589	     -0.22699373	     28.26228118	      0.00000000	      0.00000000	    -29.70357782	     -1.99008495	     -7.93576947	      0.00000000	      0.00000000	    -12.31339033	     11.25529679	     -5.45971890
      3.65000000	      0.12158069	      0.00000000	      0.00000000	     -0.25953822	      0.91460962	     -0.22676927	     28.14374207	      0.00000000	      0.00000000	    -26.10524359	     -2.08503441	     -9.04241138	      0.00000000	      0.00000000	    -11.87559874	     11.40758800	     -5.48403479
      3.66000000	      0.10699509	      0.00000000	      0.00000000	     -0.24727921	      0.91281972	     -0.22655970	     28.01033489	      0.00000000	      0.00000000	    -22.60261231	     -2.18470365	    -10.09172438	      0.00000000	      0.00000000	    -11.50267412	     11.51208738	     -5.46557145
      3.67000000	      0.06885566	      0.00000000	      0.00000000	     -0.23488551	      0.91096611	     -0.22635916	     27.87831357	      0.00000000	      0.00000000	    -19.28531992	     -2.26704763	    -11.07525857	      0.00000000	      0.00000000	    -11.21962139	     11.56186083	     -5.41175497
      3.68000000	      0.01676939	      0.00000000	      0.00000000	     -0.22234544	      0.90907781	     -0.22615333	     27.75880016	      0.00000000	      0.00000000	    -16.25095349	     -2.30856378	    -11.98838037	      0.00000000	      0.00000000	    -11.05072577	     11.55012455	     -5.33551900
      3.69000000	     -0.03628954	      0.00000000	      0.00000000	     -0.20964548	      0.90719528	     -0.22593266	     27.65789199	      0.00000000	      0.00000000	    -13.59981022	     -2.28811034	    -12.83301659	      0.00000000	      0.00000000	    -11.01499846	     11.47109903	     -5.25295762
      3.70000000	     -0.07524188	      0.00000000	      0.00000000	     -0.19676325	      0.90536643	     -0.22569344	     27.57799778	      0.00000000	      0.00000000	    -11.42753189	     -2.19234426	    -13.61956393	      0.00000000	      0.00000000	    -11.12276707	     11.32081290	     -5.17968443
      3.71000000	     -0.08505722	      0.00000000	      0.00000000	     -0.18367753	      0.90362742	     -0.22544601	     27.51887719	      0.00000000	      0.00000000	     -9.81570155	     -2.02191194	    -14.36589045	      0.00000000	      0.00000000	    -11.37417467	     11.09740458	     -5.12659912
      3.72000000	     -0.05350873	      0.00000000	      0.00000000	     -0.17037400	      0.90198956	     -0.22521576	     27.47782746	      0.00000000	      0.00000000	     -8.82028046	     -1.79687407	    -15.09240500	      0.00000000	      0.00000000	    -11.75996548	     10.80042568	     -5.09618285
      3.73000000	      0.02547095	      0.00000000	      0.00000000	     -0.15682375	      0.90044615	     -0.22502308	     27.44914083	      0.00000000	      0.00000000	     -8.45912621	     -1.55943922	    -15.81433122	      0.00000000	      0.00000000	    -12.26460315	     10.42878133	     -5.08055004
      3.74000000	      0.14769095	      0.00000000	      0.00000000	     -0.14296278	      0.89899196	     -0.22487142	     27.42352283	      0.00000000	      0.00000000	     -8.70206853	     -1.37213953	    -16.53417327	      0.00000000	      0.00000000	    -12.87124700	      9.97727347	     -5.06214280
      3.75000000	      0.29526770	      0.00000000	      0.00000000	     -0.12871414	      0.89762143	     -0.22476626	     27.38915065	      0.00000000	      0.00000000	     -9.46832666	     -1.31024399	    -17.23770484	      0.00000000	      0.00000000	    -13.56739901	      9.43223312	     -5.01723755
      3.76000000	      0.43783503	      0.00000000	      0.00000000	     -0.11404199	      0.89629864	     -0.22473800	     27.33700892	      0.00000000	      0.00000000	    -10.63507499	     -1.44843365	    -17.89539705	      0.00000000	      0.00000000	    -14.34961245	      8.76734226	     -4.92151904
      3.77000000	      0.54188904	      0.00000000	      0.00000000	     -0.09898363	      0.89494011	     -0.22483371	     27.27091765	      0.00000000	      0.00000000	    -12.05807991	     -1.84343082	    -18.46840692	      0.00000000	      0.00000000	    -15.22579959	      7.94117763	     -4.75617709
      3.78000000	      0.58512290	      0.00000000	      0.00000000	     -0.08363448	      0.89346273	     -0.22507341	     27.21614557	      0.00000000	      0.00000000	    -13.60153098	     -2.51605771	    -18.91591586	      0.00000000	      0.00000000	    -16.21445925	      6.89800749	     -4.51270827
      3.79000000	      0.56534601	      0.00000000	      0.00000000	     -0.06811491	      0.89188826	     -0.22538819	     27.21596745	      0.00000000	      0.00000000	    -15.16983678	     -3.43754932	    -19.20050719	      0.00000000	      0.00000000	    -17.34130637	      5.57291380	     -4.19503794
      3.80000000	      0.49590213	      0.00000000	      0.00000000	     -0.05256044	      0.89039997	     -0.22561901	     27.31174045	      0.00000000	      0.00000000	    -16.72932349	     -4.52517890	    -19.29050865	      0.00000000	      0.00000000	    -18.63480411	      3.90146305	     -3.81856351
      3.81000000	      0.39330198	      0.00000000	      0.00000000	     -0.03711661	      0.88926359	     -0.22564324	     27.51868689	      0.00000000	      0.00000000	    -18.30533336	     -5.65056663	    -19.16114560	      0.00000000	      0.00000000	    -20.12248698	      1.83301098	     -3.40680079
      3.82000000	      0.27128965	      0.00000000	      0.00000000	     -0.02188415	      0.88865857	     -0.22549924	     27.81716274	      0.00000000	      0.00000000	    -19.94902266	     -6.66015202	    -18.79684489	      0.00000000	      0.00000000	    -21.82905501	     -0.65444228	     -2.98696246
      3.83000000	      0.14370869	      0.00000000	      0.00000000	     -0.00686788	      0.88854788	     -0.22533641	     28.16248246	      0.00000000	      0.00000000	    -21.68995102	     -7.40299025	    -18.19426346	      0.00000000	      0.00000000	    -23.77541610	     -3.54078431	     -2.58580400
      3.84000000	      0.02491438	      0.00000000	      0.00000000	      0.00795749	      0.88870776	     -0.22526491	     28.49769362	      0.00000000	      0.00000000	    -23.50444887	     -7.75886250	    -17.36316870	      0.00000000	      0.00000000	    -25.97692168	     -6.75492210	     -2.22661864
      3.85000000	     -0.07534986	      0.00000000	      0.00000000	      0.02254012	      0.88891143	     -0.22528838	     28.75990765	      0.00000000	      0.00000000	    -25.31635852	     -7.65991136	    -16.32309606	      0.00000000	      0.00000000	    -28.43964503	    -10.17326817	     -1.92766209
      3.86000000	     -0.15286166	      0.00000000	      0.00000000	      0.03677900	      0.88908931	     -0.22534106	     28.88576531	      0.00000000	      0.00000000	    -27.02168288	     -7.10081875	    -15.09666782	      0.00000000	      0.00000000	    -31.15496676	    -13.62713342	     -1.70177826
      3.87000000	     -0.20323925	      0.00000000	      0.00000000	      0.05063133	      0.88932921	     -0.22533956	     28.82015204	      0.00000000	      0.00000000	    -28.51898567	     -6.13573246	    -13.70372294	      0.00000000	      0.00000000	    -34.09456095	    -16.91887739	     -1.55669105
